# 3ds Max Wavefront OBJ Exporter v0.97b - (c)2007 guruware
# File Created: 04.11.2016 22:15:59

mtllib Teensie_OBJ.mtl

#
# object Mesh_0011
#

v  6.2444 105.3511 15.5721
v  1.5754 106.9609 2.3283
v  -2.6667 105.7373 15.7261
v  -6.5456 107.4096 8.0712
v  9.8975 106.7150 7.8338
v  12.9765 67.0875 17.7399
v  20.3003 61.4288 1.0541
v  -11.5577 67.5056 17.7913
v  -19.7433 62.0945 1.2150
v  -0.0074 58.3092 -9.3185
v  22.3835 26.2818 28.5222
v  13.4528 29.1651 14.8686
v  0.2444 27.6908 18.6557
v  -31.5530 12.8203 -4.6771
v  0.1333 8.4223 -19.3922
v  31.9131 12.6142 -4.6189
v  -12.9639 29.1768 14.9094
v  -20.3347 25.7004 28.8015
v  -0.5206 103.5204 9.6344
v  3.3395 103.4306 9.6846
v  1.6831 113.1886 21.6087
v  5.8271 119.1500 16.3488
v  1.3582 104.7640 6.5122
v  -2.0741 119.4218 16.2620
v  2.4225 132.8230 9.7158
v  -5.9000 130.8052 14.1044
v  2.4474 135.3682 20.4810
v  2.0789 122.7722 9.2875
v  -13.0992 121.1166 28.0141
v  1.9942 125.3850 39.2480
v  1.5969 110.0731 16.9606
v  1.1181 103.3367 59.2979
v  -17.8167 94.0676 53.8017
v  0.1187 75.7619 67.8710
v  -9.9627 71.8922 62.4016
v  -9.7123 86.0758 36.5753
v  -0.2360 64.8588 64.3136
v  -0.0805 67.3615 52.4232
v  10.5348 130.2393 14.2002
v  16.8881 120.0840 28.1890
v  9.9730 71.2058 62.5178
v  19.4332 92.7850 54.0189
v  10.2918 84.9603 35.9589
v  4.5542 185.7325 -43.5210
v  -18.9863 154.1371 -28.1467
v  2.4945 136.6342 19.7861
v  -5.8992 130.9082 14.5023
v  2.0421 122.0621 11.3279
v  3.0744 142.7905 -43.3144
v  25.6852 152.5990 -27.8862
v  10.5356 130.3423 14.5981
# 51 vertices

vn 0.3827 0.6033 0.6997
vn 0.0174 0.7346 -0.6782
vn -0.3144 0.6270 0.7128
vn -0.6344 0.7657 -0.1056
vn 0.6811 0.7206 -0.1294
vn 0.5515 0.1315 0.8237
vn 0.8975 0.2463 -0.3658
vn -0.5378 0.1451 0.8305
vn -0.9040 0.2651 -0.3355
vn -0.0092 0.2127 -0.9771
vn 0.1967 -0.3658 0.9097
vn -0.2185 -0.5264 0.8217
vn -0.0009 -0.4626 0.8866
vn -0.7806 -0.5885 -0.2106
vn -0.0022 -0.7177 -0.6963
vn 0.7716 -0.5982 -0.2163
vn 0.2690 -0.5468 0.7929
vn -0.1320 -0.3918 0.9105
vn -0.8704 -0.4710 0.1433
vn 0.8403 -0.5262 0.1304
vn -0.0201 -0.6245 0.7808
vn 0.7918 0.2885 -0.5383
vn -0.0124 0.2904 -0.9568
vn -0.7620 0.3428 -0.5494
vn 0.0257 0.6109 -0.7913
vn -0.7368 0.5565 -0.3839
vn 0.0328 0.9835 0.1778
vn -0.0058 -0.3288 -0.9444
vn -0.9423 0.3266 -0.0740
vn 0.0228 0.7696 0.6381
vn -0.0118 -0.4607 -0.8875
vn -0.7136 -0.3423 -0.6113
vn 0.0141 0.5512 0.8343
vn -0.9267 0.1208 0.3558
vn -0.0055 0.0105 0.9999
vn -0.7981 -0.4534 0.3968
vn -0.5919 -0.5182 -0.6173
vn -0.0332 -0.8871 0.4603
vn -0.0301 -0.8984 -0.4381
vn 0.8136 0.3814 -0.4389
vn 0.9634 0.2608 -0.0624
vn 0.7610 -0.5063 0.4056
vn 0.9305 0.0541 0.3622
vn 0.5211 -0.5731 -0.6325
vn 0.0236 0.7896 0.6132
vn -0.9635 0.0687 0.2586
vn 0.0216 0.7416 0.6705
vn -0.9625 -0.0548 0.2655
vn -0.0321 -0.9711 -0.2364
vn -0.0301 -0.9344 -0.3550
vn 0.9629 0.0024 0.2698
vn 0.9533 -0.1208 0.2767
# 52 vertex normals

vt 0.3739 0.0677 0.0000
vt 0.4839 0.0197 0.0000
vt 0.4496 0.0694 0.0000
vt 0.4197 0.0634 0.0000
vt 0.1796 0.3737 0.0000
vt 0.3396 0.3779 0.0000
vt 0.0115 0.4873 0.0000
vt 0.1612 0.3267 0.0000
vt 0.0177 0.3102 0.0000
vt 0.3407 0.0896 0.0000
vt 0.4852 0.0271 0.0000
vt 0.4936 0.3840 0.0000
vt 0.0235 0.6884 0.0000
vt 0.2341 0.5552 0.0000
vt 0.1261 0.1754 0.0000
vt 0.3228 0.0311 0.0000
vt 0.1493 0.0250 0.0000
vt 0.2824 0.7256 0.0000
vt 0.2305 0.1887 0.0000
vt 0.0822 0.4953 0.0000
vt 0.4952 0.7437 0.0000
vt 0.0214 0.0260 0.0000
vt 0.0216 0.1621 0.0000
vt 0.8854 0.8966 0.0000
vt 0.9465 0.9076 0.0000
vt 0.9159 0.5705 0.0000
vt 0.9729 0.5912 0.0000
vt 0.8025 0.8872 0.0000
vt 0.8543 0.5527 0.0000
vt 0.9940 0.0000 0.0000
vt 0.8850 0.1251 0.0000
vt 0.7845 0.0683 0.0000
vt 1.0000 0.1204 0.0000
vt 0.8182 0.2804 0.0000
vt 0.6829 0.1713 0.0000
vt 0.9898 0.3114 0.0000
vt 0.5055 0.4688 0.0000
vt 0.6144 0.5674 0.0000
vt 0.5073 0.8099 0.0000
vt 0.5992 0.8512 0.0000
vt 0.8049 0.6998 0.0000
vt 0.5696 0.9396 0.0000
vt 0.6887 0.9004 0.0000
vt 0.4981 0.7512 0.0000
vt 0.3266 0.8989 0.0000
vt 0.0109 0.8494 0.0000
vt 0.0036 0.8875 0.0000
vt 0.0073 0.9360 0.0000
vt 0.3734 0.9773 0.0000
vt 0.0057 0.9360 0.0000
vt 0.3741 0.9751 0.0000
vt 0.3285 0.8977 0.0000
vt 0.0048 0.9353 0.0000
vt 0.0052 0.8909 0.0000
# 54 texture coords

g Mesh_0011
usemtl Material__25
s 271
f 1/1/1 2/2/2 3/1/3 
s 272
f 3/1/3 2/2/2 4/3/4 
s 273
f 2/2/2 1/1/1 5/3/5 
s 274
f 5/4/5 6/5/6 7/6/7 
s 275
f 1/7/1 8/8/8 6/9/6 
s 276
f 3/10/3 4/4/4 8/5/8 
s 277
f 4/4/4 2/11/2 9/6/9 
s 278
f 2/11/2 7/6/7 10/12/10 
s 279
f 11/13/11 6/5/6 12/14/12 
s 280
f 13/15/13 14/16/14 15/17/15 
s 281
f 12/14/12 16/18/16 11/13/11 
s 282
f 7/6/7 6/5/6 16/18/16 
s 283
f 6/5/6 11/13/11 16/18/16 
s 284
f 5/4/5 1/10/1 6/5/6 
s 285
f 13/15/13 8/8/8 17/19/17 
s 286
f 8/5/8 18/13/18 17/14/17 
s 287
f 1/7/1 3/20/3 8/8/8 
s 288
f 8/5/8 9/6/9 14/18/14 
s 289
f 8/5/8 14/18/14 18/13/18 
s 290
f 8/5/8 4/4/4 9/6/9 
s 291
f 9/6/9 10/12/10 15/21/15 
s 292
f 9/6/9 15/21/15 14/18/14 
s 293
f 9/6/9 2/11/2 10/12/10 
s 294
f 10/12/10 7/6/7 15/21/15 
s 295
f 7/6/7 16/18/16 15/21/15 
s 296
f 2/11/2 5/4/5 7/6/7 
s 297
f 17/14/17 18/13/18 14/18/14 
s 298
f 6/9/6 8/8/8 13/15/13 
s 299
f 13/15/13 17/19/17 14/16/14 
s 300
f 16/22/16 12/23/12 13/15/13 
s 301
f 16/22/16 13/15/13 15/17/15 
s 302
f 6/9/6 13/15/13 12/23/12 
s 501
f 19/24/19 20/25/20 21/26/21 
s 502
f 21/26/21 20/25/20 22/27/22 
s 503
f 20/25/20 23/28/23 22/27/22 
s 504
f 22/27/22 23/28/23 24/29/24 
s 505
f 23/28/23 19/24/19 24/29/24 
s 506
f 24/29/24 19/24/19 21/26/21 
s 507
f 25/30/25 26/31/26 27/32/27 
s 508
f 25/30/25 28/33/28 26/31/26 
s 509
f 27/32/27 29/34/29 30/35/30 
s 510
f 27/32/27 26/31/26 29/34/29 
s 511
f 26/31/26 31/36/31 29/34/29 
s 512
f 26/31/32 28/33/28 31/36/31 
s 513
f 32/37/33 33/38/34 34/39/35 
s 514
f 33/38/34 35/40/36 34/39/35 
s 515
f 36/41/37 35/40/36 33/38/34 
s 516
f 37/42/38 34/39/35 35/40/36 
s 517
f 37/42/38 35/40/36 38/43/39 
s 518
f 33/38/34 32/37/33 29/34/29 
s 519
f 29/34/29 32/37/33 30/35/30 
s 520
f 31/36/31 36/41/37 29/34/29 
s 521
f 39/31/40 25/30/25 27/32/27 
s 522
f 28/33/28 25/30/25 39/31/40 
s 523
f 40/34/41 27/32/27 30/35/30 
s 524
f 39/31/40 27/32/27 40/34/41 
s 525
f 31/36/31 39/31/40 40/34/41 
s 526
f 28/33/28 39/31/40 31/36/31 
s 527
f 41/40/42 42/38/43 34/39/35 
s 528
f 34/39/35 42/38/43 32/37/33 
s 529
f 41/40/42 38/43/39 43/41/44 
s 530
f 43/41/44 38/43/39 36/41/37 
s 531
f 34/39/35 37/42/38 41/40/42 
s 532
f 41/40/42 37/42/38 38/43/39 
s 533
f 32/37/33 42/38/43 40/34/41 
s 534
f 32/37/33 40/34/41 30/35/30 
s 535
f 43/41/44 36/41/37 31/36/31 
s 536
f 42/38/43 43/41/44 40/34/41 
s 537
f 40/34/41 43/41/44 31/36/31 
s 538
f 42/38/43 41/40/42 43/41/44 
s 539
f 36/41/37 38/43/39 35/40/36 
s 540
f 36/41/37 33/38/34 29/34/29 
s 541
f 44/44/45 45/45/46 46/46/47 
s 542
f 46/46/47 45/45/46 47/47/48 
s 543
f 45/45/46 48/48/49 47/47/48 
s 544
f 45/45/46 49/49/50 48/50/49 
s 545
f 49/51/50 50/52/51 48/53/49 
s 546
f 48/53/49 50/52/51 51/54/52 
s 547
f 50/52/51 46/46/47 51/54/52 
s 548
f 50/52/51 44/44/45 46/46/47 
# 0 polygons - 80 triangles

#
# object Object004
#

v  30.3276 99.2879 8.9022
v  48.5970 104.8395 18.6227
v  56.6897 99.6739 12.4196
v  30.8091 101.5989 15.8960
v  43.7121 97.0171 21.5599
v  49.7107 91.5090 16.3292
v  30.8817 94.4068 14.4780
v  9.0019 100.1609 7.7696
v  28.1128 101.4862 15.3403
v  9.6219 101.0499 9.2079
v  9.3036 98.5954 8.6072
v  27.8082 94.7506 14.0017
v  49.6933 103.1971 23.6039
v  52.8126 101.3288 15.6946
v  48.4065 99.7533 18.7994
v  55.8048 104.1897 26.2541
v  55.7503 101.3453 27.3286
v  58.5568 103.8017 23.5508
v  60.9694 101.1353 17.1413
v  59.6640 97.3971 17.0721
v  52.5821 98.1479 14.8298
v  61.9672 99.7211 33.1158
v  63.7912 98.5007 31.0616
v  66.0642 99.8666 31.5659
v  63.4583 101.8836 34.4762
v  62.5816 102.9662 27.1426
v  59.6118 104.3822 30.1146
v  59.7076 100.4910 28.4424
v  57.8917 100.0951 24.4187
v  66.5200 96.5546 29.2328
v  61.1589 99.0952 26.2747
v  64.2008 93.9371 27.4686
v  62.5573 95.2051 18.4917
v  63.0815 101.5570 25.9158
v  66.1157 92.3351 21.4477
v  64.1996 97.6760 18.6256
v  52.1019 99.1774 30.7597
v  49.5581 99.2390 32.2771
v  50.5456 96.9629 30.3623
v  51.2863 98.7798 26.8217
v  49.7733 101.3252 27.2237
v  48.2430 99.0216 27.0107
v  47.0020 97.5518 23.8953
v  49.2140 101.4535 31.3506
v  53.7956 98.6218 21.7910
v  48.4219 96.6717 19.0546
v  52.7277 100.8409 25.8153
v  47.3211 98.6040 31.0871
# 48 vertices

vn 0.0010 0.1829 -0.9831
vn 0.3505 0.8393 0.4155
vn 0.9370 0.1206 -0.3279
vn -0.3297 0.7416 0.5843
vn 0.0046 -0.1942 0.9810
vn 0.4606 -0.8826 0.0942
vn -0.2871 -0.9273 0.2404
vn 0.1885 0.1758 -0.9662
vn -0.1996 0.7364 0.6465
vn -0.1189 0.9546 0.2733
vn -0.1208 -0.9561 -0.2671
vn -0.2266 -0.9229 0.3112
vn -0.5216 0.8460 0.1109
vn -0.2079 0.6430 -0.7371
vn -0.8191 0.3372 -0.4641
vn -0.3365 0.8780 0.3404
vn -0.4331 -0.4346 0.7897
vn 0.2526 0.9476 -0.1957
vn 0.4534 0.5540 -0.6982
vn 0.0594 -0.7309 -0.6799
vn -0.2035 -0.3730 -0.9052
vn -0.4458 -0.5965 0.6674
vn 0.1902 -0.9770 -0.0966
vn 0.9718 -0.2239 0.0734
vn 0.2188 0.3315 0.9177
vn 0.7763 0.3156 -0.5456
vn -0.2732 0.7865 0.5539
vn -0.2209 -0.9635 0.1510
vn -0.0843 -0.9015 0.4246
vn 0.5798 0.0487 0.8133
vn -0.6238 -0.1182 0.7726
vn -0.2899 -0.7636 0.5769
vn -0.1858 -0.7465 -0.6389
vn 0.3735 0.7803 0.5016
vn 0.4935 -0.8147 -0.3046
vn 0.7482 0.1913 -0.6353
vn 0.9268 0.0625 0.3703
vn 0.0286 -0.0868 0.9958
vn 0.2260 -0.9534 0.2000
vn 0.7083 -0.6733 0.2120
vn -0.1705 0.9391 0.2984
vn -0.9571 -0.2890 0.0206
vn -0.8017 -0.5524 0.2286
vn -0.1646 0.8712 0.4625
vn 0.1773 -0.9156 0.3609
vn -0.5695 -0.7739 -0.2770
vn 0.1766 -0.1347 0.9750
vn -0.8970 -0.2706 0.3496
# 48 vertex normals

vt 0.4748 0.4345 0.0000
vt 0.3230 0.7074 0.0000
vt 0.4620 0.7360 0.0000
vt 0.3763 0.4287 0.0000
vt 0.2251 0.6950 0.0000
vt 0.1745 0.3053 0.0000
vt 0.0723 0.3796 0.0000
vt 0.0223 0.2610 0.0000
vt 0.3140 0.4253 0.0000
vt 0.1067 0.2121 0.0000
vt 0.4535 0.1540 0.0000
vt 0.3790 0.3791 0.0000
vt 0.3754 0.1802 0.0000
vt 0.4262 0.1360 0.0000
vt 0.3302 0.3677 0.0000
vt 0.6502 0.5338 0.0000
vt 0.7651 0.5400 0.0000
vt 0.6936 0.5988 0.0000
vt 0.6071 0.4054 0.0000
vt 0.5838 0.3986 0.0000
vt 0.6935 0.4197 0.0000
vt 0.8148 0.4260 0.0000
vt 0.7918 0.4346 0.0000
vt 0.7866 0.5538 0.0000
vt 0.5917 0.3171 0.0000
vt 0.6255 0.3034 0.0000
vt 0.6325 0.2721 0.0000
vt 0.5625 0.2908 0.0000
vt 0.6700 0.3458 0.0000
vt 0.5925 0.3551 0.0000
vt 0.6175 0.3591 0.0000
vt 0.6787 0.4197 0.0000
vt 0.6687 0.2757 0.0000
vt 0.6807 0.3618 0.0000
vt 0.6948 0.3133 0.0000
vt 0.7915 0.3863 0.0000
vt 0.6905 0.3446 0.0000
vt 0.7753 0.3129 0.0000
vt 0.8070 0.3666 0.0000
vt 0.5510 0.4416 0.0000
vt 0.5097 0.4751 0.0000
vt 0.5516 0.4797 0.0000
vt 0.6043 0.4917 0.0000
vt 0.5910 0.5077 0.0000
vt 0.5730 0.5465 0.0000
vt 0.6092 0.5794 0.0000
vt 0.5237 0.4957 0.0000
vt 0.6893 0.4980 0.0000
vt 0.6935 0.5705 0.0000
vt 0.5924 0.4532 0.0000
vt 0.5135 0.5269 0.0000
# 51 texture coords

g Object004
usemtl Material__25
s 322
f 52/55/53 53/56/54 54/57/55 
s 323
f 52/55/53 55/58/56 53/56/54 
s 324
f 55/58/56 56/59/57 53/56/54 
s 325
f 54/60/55 53/61/54 56/62/57 
s 326
f 57/56/58 52/55/53 54/57/55 
s 327
f 58/63/59 52/55/53 57/56/58 
s 328
f 56/59/57 58/63/59 57/56/58 
s 329
f 55/58/56 58/63/59 56/59/57 
s 330
f 57/64/58 54/60/55 56/62/57 
s 331
f 59/65/60 60/66/61 52/55/53 
s 332
f 52/55/53 60/66/61 55/58/56 
s 333
f 60/66/61 58/63/59 55/58/56 
s 334
f 61/67/62 62/68/63 63/69/64 
s 335
f 62/68/63 59/65/60 63/69/64 
s 336
f 63/69/64 59/65/60 52/55/53 
s 337
f 63/69/64 52/55/53 58/63/59 
s 338
f 60/66/61 63/69/64 58/63/59 
s 339
f 59/65/60 61/67/62 60/66/61 
s 340
f 61/67/62 63/69/64 60/66/61 
s 409
f 64/70/65 65/71/66 66/72/67 
s 410
f 67/73/68 64/70/65 68/74/69 
s 411
f 69/75/70 70/76/71 65/71/66 
s 412
f 69/75/70 65/71/66 64/70/65 
s 413
f 70/76/71 71/77/72 72/78/73 
s 414
f 70/76/71 72/78/73 65/71/66 
s 415
f 66/72/67 65/71/66 72/78/73 
s 416
f 73/79/74 74/80/75 75/81/76 
s 417
f 76/82/77 75/81/76 77/83/78 
s 418
f 76/82/77 77/83/78 78/84/79 
s 419
f 75/81/76 74/80/75 77/83/78 
s 420
f 73/79/74 79/85/80 74/80/75 
s 421
f 78/84/79 77/83/78 69/75/70 
s 422
f 78/84/79 69/75/70 67/73/68 
s 423
f 77/83/78 79/85/80 80/86/81 
s 424
f 77/83/78 80/86/81 69/75/70 
s 425
f 79/85/80 68/74/69 80/86/81 
s 426
f 79/85/80 78/84/79 68/74/69 
s 427
f 78/84/79 67/73/68 68/74/69 
s 428
f 81/87/82 82/88/83 83/89/84 
s 429
f 82/88/83 84/90/85 83/89/84 
s 430
f 80/86/81 84/90/85 82/88/83 
s 431
f 80/86/81 85/91/86 69/75/70 
s 432
f 81/87/82 83/89/84 86/92/87 
s 433
f 81/87/82 86/92/87 87/93/88 
s 434
f 81/87/82 87/93/88 85/91/86 
s 435
f 86/92/87 83/89/84 84/90/85 
s 436
f 86/92/87 84/90/85 87/93/88 
s 437
f 85/91/86 87/93/88 70/76/71 
s 438
f 85/91/86 70/76/71 69/75/70 
s 439
f 87/93/88 84/90/85 71/77/72 
s 440
f 87/93/88 71/77/72 70/76/71 
s 441
f 84/90/85 80/86/81 71/77/72 
s 442
f 88/94/89 89/95/90 90/96/91 
s 443
f 88/94/89 90/96/91 91/97/92 
s 444
f 88/94/89 91/97/92 92/98/93 
s 445
f 93/99/94 94/100/95 91/97/92 
s 446
f 90/96/91 93/99/94 91/97/92 
s 447
f 89/95/90 88/94/89 95/101/96 
s 448
f 93/99/94 92/98/93 94/100/95 
s 449
f 96/102/97 94/100/95 97/103/98 
s 450
f 94/100/95 66/72/67 97/103/98 
s 451
f 96/102/97 80/86/81 68/74/69 
s 452
f 96/102/97 98/104/99 91/97/92 
s 453
f 71/77/72 96/102/97 97/103/98 
s 454
f 97/103/98 66/72/67 72/78/73 
s 455
f 80/86/81 96/102/97 71/77/72 
s 456
f 94/100/95 64/70/65 66/72/67 
s 457
f 71/77/72 97/103/98 72/78/73 
s 458
f 64/70/65 67/73/68 69/75/70 
s 459
f 73/79/74 76/82/77 78/84/79 
s 460
f 73/79/74 78/84/79 79/85/80 
s 461
f 80/86/81 82/88/83 85/91/86 
s 462
f 81/87/82 85/91/86 82/88/83 
s 463
f 92/98/93 64/70/65 94/100/95 
s 464
f 92/98/93 98/104/99 64/70/65 
s 465
f 89/95/90 95/101/96 99/105/100 
s 466
f 90/96/91 89/95/90 99/105/100 
s 467
f 91/97/92 98/104/99 92/98/93 
s 468
f 91/97/92 94/100/95 96/102/97 
s 469
f 74/80/75 79/85/80 77/83/78 
s 470
f 76/82/77 73/79/74 75/81/76 
s 471
f 95/101/96 92/98/93 93/99/94 
s 472
f 95/101/96 88/94/89 92/98/93 
s 473
f 90/96/91 99/105/100 93/99/94 
s 474
f 99/105/100 95/101/96 93/99/94 
s 475
f 98/104/99 68/74/69 64/70/65 
s 476
f 96/102/97 68/74/69 98/104/99 
# 0 polygons - 87 triangles

#
# object Object005
#

v  -13.5639 0.1801 -6.4608
v  -35.4309 0.1801 -15.3491
v  -20.2266 0.1801 -21.3841
v  -47.5433 0.1801 3.7277
v  -38.4999 0.1801 23.3038
v  -33.9998 9.7425 13.6228
v  -23.5751 8.6491 -12.1622
v  -18.3124 0.1801 15.6092
# 8 vertices

vn 0.9543 -0.2978 -0.0231
vn -0.6685 -0.2844 -0.6872
vn 0.3562 -0.2609 -0.8972
vn -0.9628 -0.2321 -0.1380
vn -0.3730 -0.2685 0.8881
vn -0.1125 0.9384 0.3268
vn 0.1543 0.9295 -0.3350
vn 0.7830 -0.2445 0.5720
# 8 vertex normals

vt 0.1756 0.3078 0.0000
vt 0.0151 0.2683 0.0000
vt 0.0685 0.3707 0.0000
vt 0.2387 0.5151 0.0000
vt 0.2227 0.6056 0.0000
vt 0.3554 0.5393 0.0000
vt 0.2763 0.3948 0.0000
vt 0.3720 0.4123 0.0000
vt 0.2299 0.3038 0.0000
vt 0.2542 0.1478 0.0000
vt 0.0229 0.1199 0.0000
vt 0.1529 0.0533 0.0000
# 12 texture coords

g Object005
usemtl Material__25
s 207
f 100/106/101 101/107/102 102/108/103 
s 208
f 103/109/104 104/110/105 105/111/106 
s 209
f 101/112/102 103/109/104 106/113/107 
s 210
f 105/111/106 106/113/107 103/109/104 
s 211
f 106/113/107 102/114/103 101/112/102 
s 212
f 107/115/108 103/116/104 101/107/102 
s 213
f 103/116/104 107/115/108 104/117/105 
s 214
f 104/110/105 107/109/108 105/111/106 
s 215
f 107/109/108 100/112/101 106/113/107 
s 216
f 106/113/107 105/111/106 107/109/108 
s 217
f 102/114/103 106/113/107 100/112/101 
s 218
f 100/106/101 107/115/108 101/107/102 
# 0 polygons - 12 triangles

#
# object Object006
#

v  -27.3795 99.2879 8.9022
v  -45.6489 104.8395 18.6227
v  -53.7416 99.6739 12.4196
v  -27.8610 101.5989 15.8960
v  -40.7640 97.0171 21.5599
v  -46.7626 91.5090 16.3292
v  -27.9336 94.4068 14.4780
v  -6.0538 100.1609 7.7696
v  -25.1647 101.4862 15.3403
v  -6.6738 101.0499 9.2079
v  -6.3555 98.5954 8.6072
v  -24.8601 94.7506 14.0017
v  -46.7452 103.1971 23.6039
v  -49.8645 101.3288 15.6946
v  -45.4584 99.7533 18.7994
v  -52.8567 104.1897 26.2541
v  -52.8022 101.3453 27.3286
v  -55.6087 103.8017 23.5508
v  -58.0213 101.1353 17.1413
v  -56.7159 97.3971 17.0721
v  -49.6340 98.1479 14.8298
v  -59.0191 99.7211 33.1158
v  -60.8431 98.5007 31.0616
v  -63.1161 99.8666 31.5659
v  -60.5102 101.8836 34.4762
v  -59.6335 102.9662 27.1426
v  -56.6637 104.3822 30.1146
v  -56.7595 100.4910 28.4424
v  -54.9436 100.0951 24.4187
v  -63.5719 96.5546 29.2328
v  -58.2108 99.0952 26.2747
v  -61.2527 93.9371 27.4686
v  -59.6092 95.2051 18.4917
v  -60.1334 101.5570 25.9158
v  -63.1676 92.3351 21.4477
v  -61.2516 97.6760 18.6256
v  -49.1538 99.1774 30.7597
v  -46.6100 99.2390 32.2771
v  -47.5975 96.9629 30.3623
v  -48.3382 98.7798 26.8217
v  -46.8252 101.3252 27.2237
v  -45.2950 99.0216 27.0107
v  -44.0539 97.5518 23.8953
v  -46.2659 101.4535 31.3506
v  -50.8475 98.6218 21.7910
v  -45.4738 96.6717 19.0546
v  -49.7796 100.8409 25.8153
v  -44.3730 98.6040 31.0871
# 48 vertices

vn -0.0010 0.1829 -0.9831
vn -0.3505 0.8393 0.4155
vn -0.9370 0.1206 -0.3279
vn 0.3297 0.7416 0.5843
vn -0.0046 -0.1942 0.9810
vn -0.4606 -0.8826 0.0942
vn 0.2871 -0.9273 0.2404
vn -0.1885 0.1758 -0.9662
vn 0.1996 0.7364 0.6465
vn 0.1189 0.9546 0.2733
vn 0.1208 -0.9561 -0.2671
vn 0.2266 -0.9229 0.3112
vn 0.5216 0.8460 0.1109
vn 0.2079 0.6430 -0.7371
vn 0.8191 0.3372 -0.4641
vn 0.3365 0.8780 0.3404
vn 0.4331 -0.4346 0.7897
vn -0.2526 0.9476 -0.1957
vn -0.4534 0.5540 -0.6982
vn -0.0594 -0.7309 -0.6799
vn 0.2035 -0.3730 -0.9052
vn 0.4458 -0.5965 0.6674
vn -0.1902 -0.9770 -0.0966
vn -0.9718 -0.2239 0.0734
vn -0.2188 0.3315 0.9177
vn -0.7763 0.3156 -0.5456
vn 0.2732 0.7865 0.5539
vn 0.2209 -0.9635 0.1510
vn 0.0843 -0.9015 0.4246
vn -0.5798 0.0487 0.8133
vn 0.6238 -0.1182 0.7726
vn 0.2899 -0.7636 0.5769
vn 0.1858 -0.7465 -0.6389
vn -0.3735 0.7803 0.5016
vn -0.4935 -0.8147 -0.3046
vn -0.7482 0.1913 -0.6353
vn -0.9268 0.0625 0.3703
vn -0.0286 -0.0868 0.9958
vn -0.2260 -0.9534 0.2000
vn -0.7083 -0.6733 0.2120
vn 0.1705 0.9391 0.2984
vn 0.9571 -0.2890 0.0206
vn 0.8017 -0.5524 0.2286
vn 0.1646 0.8712 0.4625
vn -0.1773 -0.9156 0.3609
vn 0.5695 -0.7739 -0.2770
vn -0.1766 -0.1347 0.9750
vn 0.8970 -0.2706 0.3496
# 48 vertex normals

vt 0.4748 0.4345 0.0000
vt 0.3230 0.7074 0.0000
vt 0.4620 0.7360 0.0000
vt 0.3763 0.4287 0.0000
vt 0.2251 0.6950 0.0000
vt 0.1745 0.3053 0.0000
vt 0.0723 0.3796 0.0000
vt 0.0223 0.2610 0.0000
vt 0.3140 0.4253 0.0000
vt 0.1067 0.2121 0.0000
vt 0.4535 0.1540 0.0000
vt 0.3790 0.3791 0.0000
vt 0.3754 0.1802 0.0000
vt 0.4262 0.1360 0.0000
vt 0.3302 0.3677 0.0000
vt 0.6502 0.5338 0.0000
vt 0.7651 0.5400 0.0000
vt 0.6936 0.5988 0.0000
vt 0.6071 0.4054 0.0000
vt 0.5838 0.3986 0.0000
vt 0.6935 0.4197 0.0000
vt 0.8148 0.4260 0.0000
vt 0.7918 0.4346 0.0000
vt 0.7866 0.5538 0.0000
vt 0.5917 0.3171 0.0000
vt 0.6255 0.3034 0.0000
vt 0.6325 0.2721 0.0000
vt 0.5625 0.2908 0.0000
vt 0.6700 0.3458 0.0000
vt 0.5925 0.3551 0.0000
vt 0.6175 0.3591 0.0000
vt 0.6787 0.4197 0.0000
vt 0.6687 0.2757 0.0000
vt 0.6807 0.3618 0.0000
vt 0.6948 0.3133 0.0000
vt 0.7915 0.3863 0.0000
vt 0.6905 0.3446 0.0000
vt 0.7753 0.3129 0.0000
vt 0.8070 0.3666 0.0000
vt 0.5510 0.4416 0.0000
vt 0.5097 0.4751 0.0000
vt 0.5516 0.4797 0.0000
vt 0.6043 0.4917 0.0000
vt 0.5910 0.5077 0.0000
vt 0.5730 0.5465 0.0000
vt 0.6092 0.5794 0.0000
vt 0.5237 0.4957 0.0000
vt 0.6893 0.4980 0.0000
vt 0.6935 0.5705 0.0000
vt 0.5924 0.4532 0.0000
vt 0.5135 0.5269 0.0000
# 51 texture coords

g Object006
usemtl Material__25
s 322
f 110/120/111 109/119/110 108/118/109 
s 323
f 109/119/110 111/121/112 108/118/109 
s 324
f 109/119/110 112/122/113 111/121/112 
s 325
f 112/125/113 109/124/110 110/123/111 
s 326
f 110/120/111 108/118/109 113/119/114 
s 327
f 113/119/114 108/118/109 114/126/115 
s 328
f 113/119/114 114/126/115 112/122/113 
s 329
f 112/122/113 114/126/115 111/121/112 
s 330
f 112/125/113 110/123/111 113/127/114 
s 331
f 108/118/109 116/129/117 115/128/116 
s 332
f 111/121/112 116/129/117 108/118/109 
s 333
f 111/121/112 114/126/115 116/129/117 
s 334
f 119/132/120 118/131/119 117/130/118 
s 335
f 119/132/120 115/128/116 118/131/119 
s 336
f 108/118/109 115/128/116 119/132/120 
s 337
f 114/126/115 108/118/109 119/132/120 
s 338
f 114/126/115 119/132/120 116/129/117 
s 339
f 116/129/117 117/130/118 115/128/116 
s 340
f 116/129/117 119/132/120 117/130/118 
s 409
f 122/135/123 121/134/122 120/133/121 
s 410
f 124/137/125 120/133/121 123/136/124 
s 411
f 121/134/122 126/139/127 125/138/126 
s 412
f 120/133/121 121/134/122 125/138/126 
s 413
f 128/141/129 127/140/128 126/139/127 
s 414
f 121/134/122 128/141/129 126/139/127 
s 415
f 128/141/129 121/134/122 122/135/123 
s 416
f 131/144/132 130/143/131 129/142/130 
s 417
f 133/146/134 131/144/132 132/145/133 
s 418
f 134/147/135 133/146/134 132/145/133 
s 419
f 133/146/134 130/143/131 131/144/132 
s 420
f 130/143/131 135/148/136 129/142/130 
s 421
f 125/138/126 133/146/134 134/147/135 
s 422
f 123/136/124 125/138/126 134/147/135 
s 423
f 136/149/137 135/148/136 133/146/134 
s 424
f 125/138/126 136/149/137 133/146/134 
s 425
f 136/149/137 124/137/125 135/148/136 
s 426
f 124/137/125 134/147/135 135/148/136 
s 427
f 124/137/125 123/136/124 134/147/135 
s 428
f 139/152/140 138/151/139 137/150/138 
s 429
f 139/152/140 140/153/141 138/151/139 
s 430
f 138/151/139 140/153/141 136/149/137 
s 431
f 125/138/126 141/154/142 136/149/137 
s 432
f 142/155/143 139/152/140 137/150/138 
s 433
f 143/156/144 142/155/143 137/150/138 
s 434
f 141/154/142 143/156/144 137/150/138 
s 435
f 140/153/141 139/152/140 142/155/143 
s 436
f 143/156/144 140/153/141 142/155/143 
s 437
f 126/139/127 143/156/144 141/154/142 
s 438
f 125/138/126 126/139/127 141/154/142 
s 439
f 127/140/128 140/153/141 143/156/144 
s 440
f 126/139/127 127/140/128 143/156/144 
s 441
f 127/140/128 136/149/137 140/153/141 
s 442
f 146/159/147 145/158/146 144/157/145 
s 443
f 147/160/148 146/159/147 144/157/145 
s 444
f 148/161/149 147/160/148 144/157/145 
s 445
f 147/160/148 150/163/151 149/162/150 
s 446
f 147/160/148 149/162/150 146/159/147 
s 447
f 151/164/152 144/157/145 145/158/146 
s 448
f 150/163/151 148/161/149 149/162/150 
s 449
f 153/166/154 150/163/151 152/165/153 
s 450
f 153/166/154 122/135/123 150/163/151 
s 451
f 124/137/125 136/149/137 152/165/153 
s 452
f 147/160/148 154/167/155 152/165/153 
s 453
f 153/166/154 152/165/153 127/140/128 
s 454
f 128/141/129 122/135/123 153/166/154 
s 455
f 127/140/128 152/165/153 136/149/137 
s 456
f 122/135/123 120/133/121 150/163/151 
s 457
f 128/141/129 153/166/154 127/140/128 
s 458
f 125/138/126 123/136/124 120/133/121 
s 459
f 134/147/135 132/145/133 129/142/130 
s 460
f 135/148/136 134/147/135 129/142/130 
s 461
f 141/154/142 138/151/139 136/149/137 
s 462
f 138/151/139 141/154/142 137/150/138 
s 463
f 150/163/151 120/133/121 148/161/149 
s 464
f 120/133/121 154/167/155 148/161/149 
s 465
f 155/168/156 151/164/152 145/158/146 
s 466
f 155/168/156 145/158/146 146/159/147 
s 467
f 148/161/149 154/167/155 147/160/148 
s 468
f 152/165/153 150/163/151 147/160/148 
s 469
f 133/146/134 135/148/136 130/143/131 
s 470
f 131/144/132 129/142/130 132/145/133 
s 471
f 149/162/150 148/161/149 151/164/152 
s 472
f 148/161/149 144/157/145 151/164/152 
s 473
f 149/162/150 155/168/156 146/159/147 
s 474
f 149/162/150 151/164/152 155/168/156 
s 475
f 120/133/121 124/137/125 154/167/155 
s 476
f 154/167/155 124/137/125 152/165/153 
# 0 polygons - 87 triangles

#
# object Object007
#

v  13.0727 0.1801 -6.4608
v  34.9398 0.1801 -15.3491
v  19.7355 0.1801 -21.3841
v  47.0521 0.1801 3.7277
v  38.0088 0.1801 23.3038
v  33.5086 9.7425 13.6228
v  23.0840 8.6491 -12.1622
v  17.8212 0.1801 15.6092
# 8 vertices

vn -0.9543 -0.2978 -0.0231
vn 0.6685 -0.2844 -0.6872
vn -0.3562 -0.2609 -0.8972
vn 0.9628 -0.2321 -0.1380
vn 0.3730 -0.2685 0.8881
vn 0.1125 0.9384 0.3268
vn -0.1543 0.9295 -0.3350
vn -0.7830 -0.2445 0.5720
# 8 vertex normals

vt 0.1756 0.3078 0.0000
vt 0.0151 0.2683 0.0000
vt 0.0685 0.3707 0.0000
vt 0.2387 0.5151 0.0000
vt 0.2227 0.6056 0.0000
vt 0.3554 0.5393 0.0000
vt 0.2763 0.3948 0.0000
vt 0.3720 0.4123 0.0000
vt 0.2299 0.3038 0.0000
vt 0.2542 0.1478 0.0000
vt 0.0229 0.1199 0.0000
vt 0.1529 0.0533 0.0000
# 12 texture coords

g Object007
usemtl Material__25
s 207
f 158/171/159 157/170/158 156/169/157 
s 208
f 161/174/162 160/173/161 159/172/160 
s 209
f 162/176/163 159/172/160 157/175/158 
s 210
f 159/172/160 162/176/163 161/174/162 
s 211
f 157/175/158 158/177/159 162/176/163 
s 212
f 157/170/158 159/179/160 163/178/164 
s 213
f 160/180/161 163/178/164 159/179/160 
s 214
f 161/174/162 163/172/164 160/173/161 
s 215
f 162/176/163 156/175/157 163/172/164 
s 216
f 163/172/164 161/174/162 162/176/163 
s 217
f 156/175/157 162/176/163 158/177/159 
s 218
f 157/170/158 163/178/164 156/169/157 
# 0 polygons - 12 triangles

